<?xml version="1.0" encoding="UTF-8"?>
<svg xmlns="http://www.w3.org/2000/svg" xmlns:xlink="http://www.w3.org/1999/xlink" width="1000px" height="px" viewBox="0 0 1000 340" version="1.1">
<g id="surface1">
<path style=" stroke:none;fill-rule:nonzero;fill:rgb(81.568627%,3.137255%,5.882353%);fill-opacity:1;" d="M 404.511719 209.476562 L 401.820312 197.652344 L 376.261719 197.652344 L 369.832031 209.476562 L 352.828125 209.476562 L 388.183594 145.65625 L 407.597656 145.65625 L 423.261719 209.476562 Z M 396.339844 173.261719 C 395.414062 169.796875 394.847656 166.242188 394.652344 162.660156 L 394.429688 162.660156 C 392.917969 166.570312 391.132812 170.363281 389.085938 174.019531 L 382.300781 186.011719 L 399.429688 186.011719 Z M 396.339844 173.261719 "/>
<path style=" stroke:none;fill-rule:nonzero;fill:rgb(81.568627%,3.137255%,5.882353%);fill-opacity:1;" d="M 473.519531 209.476562 L 460.527344 181.972656 C 458.425781 177.421875 456.613281 172.738281 455.109375 167.957031 C 454.683594 172.691406 453.875 179.128906 452.890625 185.171875 L 448.945312 209.476562 L 432.488281 209.476562 L 442.828125 145.65625 L 464.765625 145.65625 L 476.921875 170.914062 C 479.355469 176.101562 481.53125 181.6875 483.367188 186.589844 C 483.699219 181.109375 484.847656 172.691406 485.839844 166.644531 L 489.230469 145.65625 L 505.695312 145.65625 L 495.355469 209.476562 Z M 473.519531 209.476562 "/>
<path style=" stroke:none;fill-rule:nonzero;fill:rgb(81.568627%,3.137255%,5.882353%);fill-opacity:1;" d="M 617.871094 209.476562 L 604.355469 184.507812 L 603.691406 184.507812 L 599.664062 209.476562 L 582.542969 209.476562 L 592.890625 145.65625 C 599.203125 145.285156 607.222656 145.1875 616.113281 145.1875 C 633.550781 145.1875 643.207031 150.570312 641.03125 164.089844 C 639.621094 172.691406 632.015625 179.699219 621.816406 181.769531 C 623.386719 184.242188 624.855469 186.589844 626.363281 188.949219 L 638.71875 209.476562 Z M 612.832031 157.285156 C 611.082031 157.285156 609.101562 157.386719 608.089844 157.476562 L 605.441406 173.832031 C 606.296875 173.917969 608.042969 174.019531 609.691406 174.019531 C 616.921875 174.019531 622.0625 170.710938 622.941406 165.324219 C 623.746094 160.308594 620.839844 157.285156 612.832031 157.285156 "/>
<path style=" stroke:none;fill-rule:nonzero;fill:rgb(81.568627%,3.137255%,5.882353%);fill-opacity:1;" d="M 647.539062 209.476562 L 657.882812 145.65625 L 699.582031 145.65625 L 697.574219 158.03125 L 673 158.03125 L 670.945312 170.707031 L 694.203125 170.707031 L 692.257812 182.722656 L 668.992188 182.722656 L 666.722656 196.804688 L 691.28125 196.804688 L 689.242188 209.476562 Z M 647.539062 209.476562 "/>
<path style=" stroke:none;fill-rule:nonzero;fill:rgb(81.568627%,3.137255%,5.882353%);fill-opacity:1;" d="M 749.824219 209.476562 L 747.125 197.652344 L 721.566406 197.652344 L 715.148438 209.476562 L 698.152344 209.476562 L 733.503906 145.65625 L 752.933594 145.65625 L 768.59375 209.476562 Z M 741.640625 173.261719 C 740.738281 169.789062 740.175781 166.242188 739.960938 162.660156 L 739.738281 162.660156 C 738.226562 166.570312 736.441406 170.363281 734.398438 174.019531 L 727.628906 186.011719 L 744.738281 186.011719 Z M 741.640625 173.261719 "/>
<path style=" stroke:none;fill-rule:nonzero;fill:rgb(81.568627%,3.137255%,5.882353%);fill-opacity:1;" d="M 816.558594 209.476562 L 803.570312 181.972656 C 801.472656 177.421875 799.667969 172.738281 798.167969 167.957031 C 797.730469 172.691406 796.902344 179.128906 795.925781 185.171875 L 791.980469 209.476562 L 775.53125 209.476562 L 785.867188 145.65625 L 807.820312 145.65625 L 819.960938 170.914062 C 822.417969 176.101562 824.566406 181.6875 826.421875 186.589844 C 826.757812 181.109375 827.894531 172.691406 828.878906 166.644531 L 832.289062 145.65625 L 848.742188 145.65625 L 838.390625 209.476562 Z M 816.558594 209.476562 "/>
<path style=" stroke:none;fill-rule:nonzero;fill:rgb(81.568627%,3.137255%,5.882353%);fill-opacity:1;" d="M 855.507812 209.476562 L 865.867188 145.65625 L 882.976562 145.65625 L 872.628906 209.476562 Z M 855.507812 209.476562 "/>
<path style=" stroke:none;fill-rule:nonzero;fill:rgb(81.568627%,3.137255%,5.882353%);fill-opacity:1;" d="M 314.035156 119.574219 C 310.214844 109.449219 301.933594 101.265625 290.085938 95.90625 C 278.9375 90.851562 264.886719 88.425781 249.472656 88.863281 C 215.683594 90.347656 183.257812 102.605469 156.921875 123.839844 C 145.066406 133.714844 136.125 144.824219 131.097656 155.984375 C 125.730469 167.84375 124.929688 179.464844 128.757812 189.59375 C 134.402344 204.578125 149.425781 214.945312 171.042969 218.773438 C 192.410156 222.578125 217.761719 219.523438 242.394531 210.222656 C 258.152344 204.359375 272.847656 195.945312 285.882812 185.316406 C 297.742188 175.460938 306.664062 164.324219 311.695312 153.171875 C 314.695312 146.808594 316.300781 139.871094 316.40625 132.835938 C 316.425781 128.308594 315.621094 123.816406 314.035156 119.574219 M 196.289062 207.550781 C 193.195312 206.585938 192.464844 204.359375 195.148438 199.78125 L 208.925781 176.5 L 246.75 176.5 L 250.046875 191.199219 C 250.546875 193.800781 249.574219 196.460938 247.511719 198.121094 C 246.628906 198.476562 245.757812 198.8125 244.882812 199.15625 C 229.410156 205.175781 212.886719 208.03125 196.289062 207.550781 M 214.417969 167.921875 L 236.066406 132.148438 L 244.683594 167.921875 Z M 277.492188 181.292969 C 276.585938 181.863281 275.460938 181.96875 274.460938 181.574219 C 273.464844 181.179688 272.714844 180.332031 272.441406 179.292969 L 256.308594 117.117188 C 256.308594 117.117188 254.0625 106.230469 244.535156 106.230469 L 241.9375 106.230469 L 228.398438 129.25 L 185.003906 198.59375 C 182.136719 203.125 179.078125 204.441406 175.957031 204.171875 C 162.636719 200.015625 152.707031 192.238281 148.570312 181.28125 C 138.664062 155.039062 165.722656 120.511719 209 104.140625 C 252.28125 87.75 295.410156 95.746094 305.296875 121.992188 C 312.382812 140.742188 300.597656 163.738281 277.492188 181.289062 "/>
<path style=" stroke:none;fill-rule:nonzero;fill:rgb(81.568627%,3.137255%,5.882353%);fill-opacity:1;" d="M 545.15625 145.664062 C 537.398438 145.613281 529.015625 145.847656 524.519531 145.976562 L 522.351562 146.023438 L 511.652344 209.929688 L 518.273438 210.175781 C 522.894531 210.359375 527.703125 210.589844 533.90625 210.625 C 547.855469 210.722656 559.261719 206.390625 566.898438 198.117188 C 573.699219 190.789062 577.144531 180.660156 576.613281 169.640625 C 575.882812 154.324219 564.714844 145.800781 545.15625 145.664062 M 535.128906 196.96875 C 534.066406 196.96875 532.679688 196.886719 531.457031 196.773438 C 531.992188 193.398438 537.121094 161.71875 537.515625 159.242188 C 539.296875 159.164062 541.507812 159.117188 544.117188 159.132812 C 556.890625 159.230469 558.878906 165.023438 559.148438 170.683594 C 559.578125 179.839844 555.128906 197.105469 535.128906 196.96875 "/>
</g>
</svg>
