<?xml version="1.0" encoding="UTF-8"?>
<svg xmlns="http://www.w3.org/2000/svg" xmlns:xlink="http://www.w3.org/1999/xlink" width="1000px" height="px" viewBox="0 0 999 367" version="1.1">
<g id="surface1">
<path style=" stroke:none;fill-rule:nonzero;fill:rgb(92.941176%,10.980392%,14.117647%);fill-opacity:1;" d="M 943.722656 144.605469 C 943.722656 222.394531 833.5 289.359375 676.15625 318.34375 C 850.148438 291.191406 973.027344 224.726562 973.027344 146.9375 C 973.027344 127.613281 965.535156 109.125 951.382812 91.632812 C 949.050781 88.800781 946.550781 85.96875 943.886719 83.136719 C 912.421875 49.824219 857.140625 21.003906 786.046875 0.015625 C 882.449219 34.664062 943.722656 86.636719 943.722656 144.605469 Z M 62.769531 79.972656 C 42.125 100.628906 30.636719 123.28125 30.636719 147.101562 C 30.636719 222.394531 146.351562 287.359375 312.355469 315.84375 C 161.839844 285.527344 57.777344 220.230469 57.777344 144.605469 C 57.777344 88.800781 114.386719 38.664062 204.460938 4.015625 C 148.019531 22.003906 102.398438 44.992188 72.09375 71.3125 C 68.765625 74.144531 65.765625 76.976562 62.769531 79.972656 Z M 62.769531 79.972656 "/>
<path style=" stroke:none;fill-rule:nonzero;fill:rgb(73.72549%,74.509804%,75.294118%);fill-opacity:1;" d="M 944.054688 83.136719 C 946.71875 85.96875 949.214844 88.800781 951.546875 91.632812 C 976.023438 113.289062 989.507812 137.109375 989.507812 162.09375 C 989.507812 262.707031 770.230469 344.164062 499.832031 344.164062 C 229.4375 344.164062 10.15625 262.875 10.15625 162.261719 C 10.15625 132.609375 29.136719 104.625 62.9375 79.972656 C 65.933594 76.976562 68.929688 74.144531 72.261719 71.3125 C 26.308594 100.628906 0 135.277344 0 172.257812 C 0 279.863281 223.609375 366.984375 499.667969 366.984375 C 775.390625 366.984375 999 279.863281 999 172.257812 C 999 140.105469 979.1875 109.957031 944.054688 83.136719 Z M 944.054688 83.136719 "/>
<path style=" stroke:none;fill-rule:nonzero;fill:rgb(92.941176%,10.980392%,14.117647%);fill-opacity:1;" d="M 215.949219 81.640625 L 215.949219 76.976562 L 374.457031 76.976562 L 374.457031 81.640625 L 361.136719 81.640625 C 346.152344 81.640625 335.164062 83.472656 328.339844 87.136719 C 324.007812 89.46875 321.679688 95.296875 321.679688 104.460938 L 321.679688 179.585938 C 321.679688 191.246094 318.515625 200.742188 312.519531 207.902344 C 306.359375 215.066406 295.871094 221.394531 280.886719 226.726562 C 265.902344 232.058594 247.917969 234.722656 226.605469 234.722656 C 209.457031 234.722656 195.96875 232.890625 186.148438 229.390625 C 176.324219 225.894531 171.328125 221.894531 171.328125 217.398438 C 171.328125 213.566406 173.492188 210.902344 177.988281 208.902344 C 183.984375 206.570312 190.976562 205.40625 199.132812 205.40625 C 204.960938 205.40625 210.289062 206.238281 214.785156 207.738281 C 219.445312 209.234375 225.109375 213.566406 232.265625 220.230469 C 236.429688 224.226562 241.757812 226.226562 248.417969 226.226562 C 253.246094 226.226562 257.910156 225.0625 262.238281 222.5625 C 266.398438 220.0625 268.566406 215.734375 268.566406 209.234375 L 268.566406 104.292969 C 268.566406 96.628906 267.398438 91.46875 265.066406 88.96875 C 263.238281 87.136719 259.40625 85.636719 253.746094 84.136719 C 246.085938 82.304688 237.761719 81.472656 229.105469 81.472656 L 215.949219 81.472656 Z M 505.328125 222.730469 C 508.65625 222.0625 511.988281 221.230469 515.316406 220.0625 C 522.976562 217.398438 528.804688 213.398438 532.964844 208.238281 C 536.960938 203.238281 539.128906 197.410156 539.128906 191.078125 C 539.128906 183.917969 536.628906 177.421875 531.46875 171.757812 C 526.472656 165.925781 519.648438 161.929688 510.820312 159.597656 C 509.15625 159.097656 507.160156 158.597656 505.160156 158.265625 L 505.160156 144.269531 C 505.828125 144.105469 506.492188 143.9375 507.324219 143.773438 C 514.984375 141.441406 520.976562 137.941406 524.972656 133.445312 C 529.136719 128.945312 531.300781 123.28125 531.300781 116.453125 C 531.300781 109.789062 529.136719 104.125 525.140625 99.796875 C 521.144531 95.296875 515.316406 92.132812 507.660156 89.632812 C 506.824219 89.46875 505.992188 89.132812 505.160156 88.96875 L 505.160156 77.808594 C 527.140625 78.140625 542.957031 79.640625 552.78125 82.472656 C 563.933594 85.636719 572.59375 90.300781 579.085938 96.628906 C 585.414062 102.792969 588.578125 109.625 588.578125 116.621094 C 588.578125 124.117188 584.582031 130.613281 576.421875 136.609375 C 568.265625 142.4375 554.113281 146.9375 533.800781 150.433594 C 555.777344 153.933594 571.09375 158.097656 579.917969 162.929688 C 592.738281 169.757812 599.234375 178.753906 599.234375 189.914062 C 599.234375 201.574219 592.074219 211.066406 578.089844 218.898438 C 561.273438 227.890625 536.796875 232.554688 505.160156 232.722656 L 505.160156 222.730469 Z M 471.363281 156.265625 L 471.363281 211.734375 C 471.363281 215.734375 472.859375 218.898438 476.023438 221.0625 C 479.1875 223.226562 483.847656 224.226562 490.007812 224.226562 C 495.335938 224.226562 500.332031 223.726562 505.328125 222.894531 L 505.328125 232.890625 L 385.113281 232.890625 L 385.113281 228.890625 C 396.101562 228.890625 403.597656 228.226562 407.257812 226.726562 C 411.253906 225.394531 413.917969 223.5625 415.585938 221.5625 C 417.082031 219.398438 417.75 214.066406 417.75 205.738281 L 417.75 105.292969 C 417.75 96.796875 417.082031 91.300781 415.585938 89.300781 C 414.085938 87.136719 411.253906 85.304688 407.257812 83.972656 C 403.261719 82.636719 395.9375 81.972656 385.113281 81.972656 L 385.113281 77.972656 L 496.503906 77.972656 C 499.5 77.972656 502.332031 77.972656 505.160156 78.140625 L 505.160156 89.300781 C 497.503906 87.636719 486.011719 86.636719 471.195312 86.800781 L 471.195312 147.769531 C 486.011719 147.769531 497.335938 146.769531 505.160156 144.605469 L 505.160156 158.597656 C 496.835938 156.929688 485.515625 156.097656 471.363281 156.265625 Z M 732.933594 229.226562 C 759.074219 223.0625 772.894531 209.902344 772.894531 194.246094 C 772.894531 172.257812 748.25 159.097656 711.121094 149.933594 C 707.292969 148.933594 703.460938 147.769531 699.800781 146.769531 L 699.800781 133.277344 C 707.625 136.609375 717.28125 139.773438 728.4375 142.773438 C 769.230469 153.101562 799.367188 166.59375 799.367188 190.414062 C 799.367188 214.234375 769.5625 227.558594 737.59375 230.390625 C 735.265625 230.722656 731.433594 229.726562 732.933594 229.226562 Z M 699.964844 78.808594 C 709.289062 77.472656 719.78125 76.640625 731.433594 76.640625 C 766.734375 76.640625 782.550781 81.140625 784.046875 84.304688 C 786.046875 88.96875 787.210938 99.960938 787.210938 106.957031 C 787.210938 108.789062 778.886719 109.125 778.222656 106.957031 C 771.5625 91.300781 760.40625 81.804688 729.4375 81.804688 C 718.28125 81.804688 708.125 83.136719 699.964844 85.636719 Z M 699.964844 229.890625 C 731.101562 225.558594 749.25 213.566406 749.25 197.074219 C 749.25 180.085938 731.101562 169.589844 699.964844 160.429688 L 699.964844 166.425781 C 722.277344 174.421875 733.765625 183.917969 733.765625 197.742188 C 733.765625 211.566406 720.945312 220.398438 699.964844 224.0625 Z M 699.964844 146.9375 C 669.828125 137.941406 650.347656 128.113281 650.683594 112.289062 C 650.347656 96.132812 668.164062 83.804688 699.964844 78.972656 L 699.964844 85.636719 C 685.480469 89.96875 676.824219 97.964844 676.824219 108.625 C 676.824219 119.285156 685.148438 126.949219 699.964844 133.277344 Z M 699.964844 160.597656 C 695.136719 159.097656 690.140625 157.597656 684.816406 156.429688 C 646.6875 146.105469 627.371094 132.277344 627.371094 114.289062 C 627.371094 96.464844 645.851562 84.136719 668.996094 79.640625 C 671.828125 78.972656 667 77.808594 664.667969 78.140625 C 640.527344 80.804688 611.222656 94.464844 611.222656 115.953125 C 611.222656 134.277344 635.363281 149.101562 676.988281 160.097656 C 685.648438 162.261719 693.472656 164.425781 700.132812 166.757812 L 700.132812 160.597656 Z M 699.964844 224.226562 L 699.964844 230.058594 C 691.808594 231.222656 682.648438 231.722656 672.828125 231.722656 L 672.328125 231.722656 C 637.863281 231.722656 617.050781 227.058594 615.21875 222.5625 C 613.71875 218.230469 611.222656 207.738281 611.222656 199.574219 C 611.222656 197.742188 619.878906 197.742188 620.378906 199.574219 C 626.207031 216.230469 642.523438 226.226562 674.160156 226.226562 C 683.980469 226.226562 692.472656 225.394531 699.964844 224.226562 Z M 699.964844 224.226562 "/>
<path style=" stroke:none;fill-rule:nonzero;fill:rgb(87.45098%,87.843137%,89.411765%);fill-opacity:1;" d="M 971.695312 98.128906 C 961.703125 98.128906 953.378906 89.800781 953.378906 79.804688 C 953.378906 69.644531 961.539062 61.484375 971.695312 61.484375 C 982.015625 61.484375 990.007812 69.644531 990.007812 79.804688 C 990.175781 89.800781 981.851562 98.128906 971.695312 98.128906 Z M 971.695312 63.316406 C 962.703125 63.316406 955.378906 70.644531 955.378906 79.804688 C 955.378906 88.800781 962.703125 96.296875 971.695312 96.296875 C 980.683594 96.296875 988.175781 88.96875 988.175781 79.804688 C 988.175781 70.476562 981.019531 63.316406 971.695312 63.316406 Z M 971.695312 63.316406 "/>
<path style=" stroke:none;fill-rule:nonzero;fill:rgb(87.45098%,87.843137%,89.411765%);fill-opacity:1;" d="M 972.359375 79.640625 C 972.691406 79.640625 972.859375 79.472656 972.859375 79.472656 C 973.359375 79.308594 973.859375 78.972656 974.191406 78.472656 C 974.523438 77.972656 974.691406 77.472656 974.691406 76.808594 C 974.691406 75.808594 974.359375 75.140625 973.859375 74.644531 C 973.527344 74.308594 973.027344 74.144531 972.527344 74.144531 L 972.527344 73.308594 C 973.859375 73.308594 974.859375 73.476562 975.691406 73.644531 C 976.523438 73.976562 977.1875 74.308594 977.855469 74.976562 C 978.355469 75.476562 978.6875 76.308594 978.6875 77.140625 C 978.6875 78.140625 978.1875 78.972656 977.355469 79.472656 C 976.855469 79.972656 976.023438 80.140625 975.191406 80.472656 L 978.851562 84.96875 C 979.351562 85.46875 979.6875 85.96875 979.851562 86.136719 C 980.183594 86.304688 980.519531 86.46875 981.019531 86.46875 L 981.019531 86.800781 L 976.023438 86.800781 L 972.527344 82.472656 L 972.527344 79.640625 Z M 969.863281 73.976562 L 969.863281 79.804688 L 970.527344 79.804688 C 971.195312 79.804688 971.859375 79.640625 972.195312 79.640625 L 972.195312 81.972656 L 970.863281 80.304688 L 969.863281 80.304688 L 969.863281 84.136719 C 969.863281 84.804688 970.027344 85.46875 970.027344 85.46875 L 970.527344 85.96875 C 970.863281 86.136719 971.359375 86.136719 971.859375 86.136719 L 971.859375 86.46875 L 964.035156 86.46875 L 964.035156 86.136719 C 964.699219 86.136719 965.367188 86.136719 965.535156 85.96875 C 965.699219 85.804688 966.03125 85.636719 966.03125 85.46875 C 966.03125 85.136719 966.199219 84.804688 966.199219 84.136719 L 966.199219 75.476562 C 966.199219 74.808594 966.03125 74.308594 966.03125 74.144531 L 965.535156 73.644531 C 965.199219 73.476562 964.699219 73.308594 964.035156 73.308594 L 972.195312 73.308594 L 972.195312 74.144531 C 971.695312 73.976562 971.527344 73.976562 971.027344 73.976562 Z M 969.863281 73.976562 "/>
</g>
</svg>
